<svg width="1058" height="338" viewBox="0 0 1058 338" fill="none" xmlns="http://www.w3.org/2000/svg">
<path d="M398.301 97.9604C380.167 59.9584 348.175 30.3227 308.879 15.124C269.584 -0.0747144 225.959 0.314019 186.941 16.2106C147.923 32.1071 116.465 62.3082 99.0118 100.627C81.5586 138.946 79.4309 182.483 93.0645 222.319C106.698 262.154 135.061 295.274 172.343 314.893C209.626 334.512 253.005 339.145 293.596 327.844C334.187 316.542 368.916 290.162 390.67 254.106C412.424 218.05 419.556 175.048 410.604 133.909" stroke="#222323" stroke-width="6.25" stroke-linecap="round" stroke-linejoin="round"/>
<path d="M366.094 285.65C348.077 249.101 319.137 235.511 319.137 235.511H178.335C178.335 235.511 149.409 249.169 131.392 285.65C131.392 285.65 229.817 388.223 356.676 294.569L366.094 285.65Z" fill="white" stroke="#222323" stroke-width="6.25" stroke-linecap="round" stroke-linejoin="round"/>
<path d="M178.363 235.511C178.363 235.511 149.437 249.169 131.419 285.65" stroke="#222323" stroke-width="6.25" stroke-linecap="round" stroke-linejoin="round"/>
<path d="M319.165 235.511C319.165 235.511 348.104 249.169 366.122 285.65" stroke="#222323" stroke-width="6.25" stroke-linecap="round" stroke-linejoin="round"/>
<path d="M214.11 252.188L250.199 304.498L287.395 252.16L214.11 252.188Z" stroke="#222323" stroke-width="6.25" stroke-linecap="round" stroke-linejoin="round"/>
<path d="M287.395 252.16L229.831 333.358" stroke="#222323" stroke-width="6.25" stroke-linecap="round" stroke-linejoin="round"/>
<path d="M155.82 250.071L65.5019 104.721C64.6226 103.385 64.0201 101.887 63.7301 100.315C63.44 98.7426 63.4684 97.1282 63.8133 95.567C64.1583 94.0059 64.8129 92.5296 65.7386 91.2255C66.6642 89.9213 67.842 88.8158 69.2025 87.9741C70.563 87.1324 72.0785 86.5717 73.6595 86.3251C75.2405 86.0785 76.8549 86.1509 78.4074 86.5382C79.96 86.9255 81.419 87.6197 82.6985 88.5798C83.978 89.54 85.0518 90.7466 85.8567 92.1284L163.626 217.332L176.189 236.522L155.82 250.071Z" fill="white" stroke="#222323" stroke-width="5.21" stroke-miterlimit="10"/>
<path d="M137.981 163.028L105.911 184.307" stroke="#222323" stroke-width="6.25" stroke-linecap="round" stroke-linejoin="round"/>
<path d="M83.4918 90.9948L73.9774 117.505" stroke="#222323" stroke-width="5.21" stroke-miterlimit="10"/>
<path d="M95.6035 109.146L86.0891 135.657" stroke="#222323" stroke-width="5.21" stroke-miterlimit="10"/>
<path d="M108.002 128.459L98.4879 154.969" stroke="#222323" stroke-width="5.21" stroke-miterlimit="10"/>
<path d="M120.415 147.772L110.887 174.282" stroke="#222323" stroke-width="5.21" stroke-miterlimit="10"/>
<path d="M268.9 60.346H226.727C185.06 60.346 151.282 94.0944 151.282 135.725V181.343C151.282 222.974 185.06 256.722 226.727 256.722H268.9C310.567 256.722 344.345 222.974 344.345 181.343V135.725C344.345 94.0944 310.567 60.346 268.9 60.346Z" fill="white" stroke="#222323" stroke-width="6.25" stroke-linecap="round" stroke-linejoin="round"/>
<path d="M298.168 128.896H197.473C184.812 128.896 174.549 139.151 174.549 151.801V159.449C174.549 172.099 184.812 182.354 197.473 182.354H298.168C310.829 182.354 321.092 172.099 321.092 159.449V151.801C321.092 139.151 310.829 128.896 298.168 128.896Z" stroke="#222323" stroke-width="6.25" stroke-linecap="round" stroke-linejoin="round"/>
<path d="M266.863 161.949C267.337 157.778 269.332 153.928 272.466 151.132C275.599 148.337 279.654 146.792 283.855 146.792C288.056 146.792 292.11 148.337 295.244 151.132C298.378 153.928 300.373 157.778 300.847 161.949" stroke="#222323" stroke-width="6.25" stroke-linecap="round" stroke-linejoin="round"/>
<path d="M228.764 161.949C228.29 157.778 226.296 153.928 223.162 151.132C220.028 148.337 215.974 146.792 211.772 146.792C207.571 146.792 203.517 148.337 200.383 151.132C197.249 153.928 195.255 157.778 194.78 161.949" stroke="#222323" stroke-width="6.25" stroke-linecap="round" stroke-linejoin="round"/>
<path d="M372.779 105.868C386.367 96.5536 404.836 93.4396 419.695 100.583C420.855 101.019 421.846 101.813 422.525 102.85C422.936 103.795 423.091 104.831 422.976 105.855C422.333 123.515 410.673 139.7 395.349 148.468C380.927 156.663 360.476 160.678 344.181 156.663C344.291 136.681 356.279 117.177 372.779 105.868Z" fill="white" stroke="#222323" stroke-width="6.25" stroke-linecap="round" stroke-linejoin="round"/>
<path d="M384.399 174.063C392.601 182.996 396.811 196.135 393.148 207.703C392.949 208.594 392.47 209.399 391.781 209.998C391.135 210.4 390.395 210.626 389.634 210.653C376.675 212.019 363.661 205.19 355.65 194.96C348.132 185.304 343.101 170.813 344.277 158.534C358.945 156.526 374.433 163.219 384.399 174.063Z" fill="white" stroke="#222323" stroke-width="6.25" stroke-linecap="round" stroke-linejoin="round"/>
<path d="M174.275 240.333L212.784 291.414" stroke="#222323" stroke-width="6.25" stroke-linecap="round" stroke-linejoin="round"/>
<path d="M321.995 240.333L283.486 291.414" stroke="#222323" stroke-width="6.25" stroke-linecap="round" stroke-linejoin="round"/>
<path d="M131.419 285.65H4" stroke="#222323" stroke-width="6.25" stroke-linecap="round" stroke-linejoin="round"/>
<path d="M366.217 285.65H493.623" stroke="#222323" stroke-width="6.25" stroke-linecap="round" stroke-linejoin="round"/>
<path d="M482.253 105.088H514.757V118.688H499.253V218.784H514.757V232.384H482.253V105.088ZM582.568 109.44C593.992 109.44 602.877 112.931 609.224 119.912C615.661 126.893 618.88 136.867 618.88 149.832V206H601.2V150.512C601.2 142.08 599.16 135.733 595.08 131.472C591.091 127.12 585.515 124.944 578.352 124.944C570.555 124.944 564.344 127.256 559.72 131.88C555.187 136.413 552.92 143.213 552.92 152.28V206H535.24V110.8H552.376V122.768C558.995 113.883 569.059 109.44 582.568 109.44ZM676.935 125.624V191.176H694.479V206H641.847V191.176H659.391V125.624H641.847V110.8H694.479V125.624H676.935ZM765.573 109.44C776.997 109.44 785.882 112.931 792.229 119.912C798.666 126.893 801.885 136.867 801.885 149.832V206H784.205V150.512C784.205 142.08 782.165 135.733 778.085 131.472C774.096 127.12 768.52 124.944 761.357 124.944C753.56 124.944 747.349 127.256 742.725 131.88C738.192 136.413 735.925 143.213 735.925 152.28V206H718.245V110.8H735.381V122.768C742 113.883 752.064 109.44 765.573 109.44ZM846.476 220.96C840.492 220.96 834.961 219.781 829.884 217.424C824.897 215.067 820.772 211.667 817.508 207.224L827.3 195.12C832.468 202.373 838.679 206 845.932 206C855.996 206 861.028 200.152 861.028 188.456V125.624H827.028V110.8H878.572V187.504C878.572 198.656 875.852 206.997 870.412 212.528C864.972 218.149 856.993 220.96 846.476 220.96ZM950.3 109.44C958.823 109.44 966.258 111.117 972.604 114.472C978.951 117.827 983.847 122.813 987.292 129.432C990.828 135.96 992.596 143.893 992.596 153.232V206H974.916V181.52H925.412V206H908.004V153.232C908.004 143.893 909.727 135.96 913.172 129.432C916.708 122.813 921.65 117.827 927.996 114.472C934.343 111.117 941.778 109.44 950.3 109.44ZM974.916 166.696V151.6C974.916 142.805 972.74 136.187 968.388 131.744C964.036 127.211 957.962 124.944 950.164 124.944C942.367 124.944 936.292 127.211 931.94 131.744C927.588 136.187 925.412 142.805 925.412 151.6V166.696H974.916ZM1012.3 232.384V218.784H1027.66V118.688H1012.3V105.088H1044.66V232.384H1012.3Z" fill="black"/>
</svg>
