<svg width="208" height="76" viewBox="0 0 208 76" fill="none" xmlns="http://www.w3.org/2000/svg">
<g filter="url(#filter0_d_62_24)">
<g filter="url(#filter1_b_62_24)">
<path d="M83.8602 19.7921C80.2333 12.1917 73.835 6.26454 65.9759 3.2248C58.1168 0.185057 49.3917 0.262804 41.5881 3.44211C33.7845 6.62143 27.493 12.6616 24.0024 20.3255C20.5117 27.9893 20.0862 36.6966 22.8129 44.6637C25.5396 52.6309 31.2122 59.2548 38.6687 63.1786C46.1251 67.1024 54.8011 68.029 62.9192 65.7688C71.0373 63.5085 77.9832 58.2324 82.334 51.0212C86.6848 43.81 88.1111 35.2096 86.3209 26.9817" stroke="#222323" stroke-width="2" stroke-linecap="round" stroke-linejoin="round"/>
<path d="M77.4189 57.33C73.8154 50.0202 68.0275 47.3022 68.0275 47.3022H39.867C39.867 47.3022 34.0818 50.0339 30.4784 57.33C30.4784 57.33 50.1634 77.8445 75.5351 59.1138L77.4189 57.33Z" fill="white" stroke="#222323" stroke-width="2" stroke-linecap="round" stroke-linejoin="round"/>
<path d="M39.8725 47.3022C39.8725 47.3022 34.0873 50.0339 30.4839 57.33" stroke="#222323" stroke-width="2" stroke-linecap="round" stroke-linejoin="round"/>
<path d="M68.033 47.3022C68.033 47.3022 73.8209 50.0339 77.4243 57.33" stroke="#222323" stroke-width="2" stroke-linecap="round" stroke-linejoin="round"/>
<path d="M47.022 50.6375L54.2398 61.0997L61.6791 50.6321L47.022 50.6375Z" stroke="#222323" stroke-width="2" stroke-linecap="round" stroke-linejoin="round"/>
<path d="M61.6791 50.6321L50.1661 66.8716" stroke="#222323" stroke-width="2" stroke-linecap="round" stroke-linejoin="round"/>
<path d="M35.3641 50.2142L17.3004 21.1442C17.1245 20.8771 17.004 20.5774 16.946 20.263C16.888 19.9485 16.8937 19.6256 16.9627 19.3134C17.0317 19.0012 17.1626 18.7059 17.3477 18.4451C17.5328 18.1843 17.7684 17.9632 18.0405 17.7948C18.3126 17.6265 18.6157 17.5143 18.9319 17.465C19.2481 17.4157 19.571 17.4302 19.8815 17.5076C20.192 17.5851 20.4838 17.7239 20.7397 17.916C20.9956 18.108 21.2104 18.3493 21.3713 18.6257L36.9252 43.6665L39.4378 47.5044L35.3641 50.2142Z" fill="white" stroke="#222323" stroke-width="2" stroke-miterlimit="10"/>
<path d="M31.7962 32.8055L25.3822 37.0614" stroke="#222323" stroke-width="2" stroke-linecap="round" stroke-linejoin="round"/>
<path d="M20.8983 18.399L18.9955 23.701" stroke="#222323" stroke-width="2" stroke-miterlimit="10"/>
<path d="M23.3207 22.0293L21.4178 27.3313" stroke="#222323" stroke-width="2" stroke-miterlimit="10"/>
<path d="M25.8005 25.8918L23.8976 31.1939" stroke="#222323" stroke-width="2" stroke-miterlimit="10"/>
<path d="M28.283 29.7543L26.3773 35.0564" stroke="#222323" stroke-width="2" stroke-miterlimit="10"/>
<path d="M57.98 12.2692H49.5455C41.212 12.2692 34.4564 19.0189 34.4564 27.345V36.4686C34.4564 44.7948 41.212 51.5445 49.5455 51.5445H57.98C66.3134 51.5445 73.069 44.7948 73.069 36.4686V27.345C73.069 19.0189 66.3134 12.2692 57.98 12.2692Z" fill="white" stroke="#222323" stroke-width="2" stroke-linecap="round" stroke-linejoin="round"/>
<path d="M63.8335 25.9792H43.6947C41.1625 25.9792 39.1097 28.0301 39.1097 30.5601V32.0898C39.1097 34.6198 41.1625 36.6708 43.6947 36.6708H63.8335C66.3657 36.6708 68.4185 34.6198 68.4185 32.0898V30.5601C68.4185 28.0301 66.3657 25.9792 63.8335 25.9792Z" stroke="#222323" stroke-width="2" stroke-linecap="round" stroke-linejoin="round"/>
<path d="M57.5726 32.5897C57.6675 31.7556 58.0663 30.9855 58.6931 30.4264C59.3199 29.8673 60.1307 29.5583 60.971 29.5583C61.8112 29.5583 62.6221 29.8673 63.2488 30.4264C63.8756 30.9855 64.2745 31.7556 64.3694 32.5897" stroke="#222323" stroke-width="2" stroke-linecap="round" stroke-linejoin="round"/>
<path d="M49.9529 32.5897C49.858 31.7556 49.4591 30.9855 48.8323 30.4264C48.2055 29.8673 47.3947 29.5583 46.5545 29.5583C45.7142 29.5583 44.9034 29.8673 44.2766 30.4264C43.6498 30.9855 43.2509 31.7556 43.1561 32.5897" stroke="#222323" stroke-width="2" stroke-linecap="round" stroke-linejoin="round"/>
<path d="M78.7558 21.3737C81.4734 19.5107 85.1671 18.8879 88.139 20.3166C88.371 20.4038 88.5693 20.5627 88.7049 20.77C88.7871 20.959 88.8182 21.1662 88.7952 21.371C88.6667 24.903 86.3345 28.1399 83.2697 29.8936C80.3853 31.5326 76.2952 32.3357 73.0362 31.5326C73.0581 27.5362 75.4558 23.6355 78.7558 21.3737Z" fill="white" stroke="#222323" stroke-width="2" stroke-linecap="round" stroke-linejoin="round"/>
<path d="M81.0797 35.0127C82.7202 36.7992 83.5622 39.427 82.8295 41.7407C82.7898 41.9189 82.694 42.0797 82.5561 42.1996C82.427 42.2801 82.279 42.3253 82.1269 42.3307C79.535 42.6039 76.9322 41.2381 75.3301 39.1921C73.8264 37.2608 72.8202 34.3626 73.0554 31.9068C75.989 31.5053 79.0866 32.8438 81.0797 35.0127Z" fill="white" stroke="#222323" stroke-width="2" stroke-linecap="round" stroke-linejoin="round"/>
<path d="M39.055 48.2665L46.7568 58.4828" stroke="#222323" stroke-width="2" stroke-linecap="round" stroke-linejoin="round"/>
<path d="M68.5989 48.2665L60.8972 58.4828" stroke="#222323" stroke-width="2" stroke-linecap="round" stroke-linejoin="round"/>
<path d="M30.4839 57.33H5" stroke="#222323" stroke-width="2" stroke-linecap="round" stroke-linejoin="round"/>
<path d="M77.4435 57.33H102.925" stroke="#222323" stroke-width="2" stroke-linecap="round" stroke-linejoin="round"/>
</g>
</g>
<path d="M105.868 22.192H111.604V24.592H108.868V42.256H111.604V44.656H105.868V22.192ZM123.571 22.96C125.587 22.96 127.155 23.576 128.275 24.808C129.411 26.04 129.979 27.8 129.979 30.088V40H126.859V30.208C126.859 28.72 126.499 27.6 125.779 26.848C125.075 26.08 124.091 25.696 122.827 25.696C121.451 25.696 120.355 26.104 119.539 26.92C118.739 27.72 118.339 28.92 118.339 30.52V40H115.219V23.2H118.243V25.312C119.411 23.744 121.187 22.96 123.571 22.96ZM140.224 25.816V37.384H143.32V40H134.032V37.384H137.128V25.816H134.032V23.2H143.32V25.816H140.224ZM155.866 22.96C157.882 22.96 159.45 23.576 160.57 24.808C161.706 26.04 162.274 27.8 162.274 30.088V40H159.154V30.208C159.154 28.72 158.794 27.6 158.074 26.848C157.37 26.08 156.386 25.696 155.122 25.696C153.746 25.696 152.65 26.104 151.834 26.92C151.034 27.72 150.634 28.92 150.634 30.52V40H147.514V23.2H150.538V25.312C151.706 23.744 153.482 22.96 155.866 22.96ZM170.143 42.64C169.087 42.64 168.111 42.432 167.215 42.016C166.335 41.6 165.607 41 165.031 40.216L166.759 38.08C167.671 39.36 168.767 40 170.047 40C171.823 40 172.711 38.968 172.711 36.904V25.816H166.711V23.2H175.807V36.736C175.807 38.704 175.327 40.176 174.367 41.152C173.407 42.144 171.999 42.64 170.143 42.64ZM188.465 22.96C189.969 22.96 191.281 23.256 192.401 23.848C193.521 24.44 194.385 25.32 194.993 26.488C195.617 27.64 195.929 29.04 195.929 30.688V40H192.809V35.68H184.073V40H181.001V30.688C181.001 29.04 181.305 27.64 181.913 26.488C182.537 25.32 183.409 24.44 184.529 23.848C185.649 23.256 186.961 22.96 188.465 22.96ZM192.809 33.064V30.4C192.809 28.848 192.425 27.68 191.657 26.896C190.889 26.096 189.817 25.696 188.441 25.696C187.065 25.696 185.993 26.096 185.225 26.896C184.457 27.68 184.073 28.848 184.073 30.4V33.064H192.809ZM199.405 44.656V42.256H202.117V24.592H199.405V22.192H205.117V44.656H199.405Z" fill="black"/>
<defs>
<filter id="filter0_d_62_24" x="0" y="0" width="107.925" height="75.9998" filterUnits="userSpaceOnUse" color-interpolation-filters="sRGB">
<feFlood flood-opacity="0" result="BackgroundImageFix"/>
<feColorMatrix in="SourceAlpha" type="matrix" values="0 0 0 0 0 0 0 0 0 0 0 0 0 0 0 0 0 0 127 0" result="hardAlpha"/>
<feOffset dy="4"/>
<feGaussianBlur stdDeviation="2"/>
<feComposite in2="hardAlpha" operator="out"/>
<feColorMatrix type="matrix" values="0 0 0 0 0 0 0 0 0 0 0 0 0 0 0 0 0 0 0.25 0"/>
<feBlend mode="normal" in2="BackgroundImageFix" result="effect1_dropShadow_62_24"/>
<feBlend mode="normal" in="SourceGraphic" in2="effect1_dropShadow_62_24" result="shape"/>
</filter>
<filter id="filter1_b_62_24" x="0" y="-4" width="107.925" height="75.9998" filterUnits="userSpaceOnUse" color-interpolation-filters="sRGB">
<feFlood flood-opacity="0" result="BackgroundImageFix"/>
<feGaussianBlur in="BackgroundImage" stdDeviation="2"/>
<feComposite in2="SourceAlpha" operator="in" result="effect1_backgroundBlur_62_24"/>
<feBlend mode="normal" in="SourceGraphic" in2="effect1_backgroundBlur_62_24" result="shape"/>
</filter>
</defs>
</svg>
