<svg width="93" height="78" viewBox="0 0 93 78" fill="none" xmlns="http://www.w3.org/2000/svg">
<rect x="14" width="64" height="12" fill="#ACD3D0"/>
<rect x="14" y="66" width="64" height="12" fill="#ACD3D0"/>
<rect x="26" y="15" width="41" height="49" fill="#ACD3D0"/>
<rect x="16" y="15" width="7" height="49" fill="#ACD3D0"/>
<rect x="70" y="15" width="7" height="49" fill="#ACD3D0"/>
<rect x="80" width="4" height="12" fill="#ACD3D0"/>
<rect x="92.0536" y="4.16406" width="4" height="12" transform="rotate(90.7834 92.0536 4.16406)" fill="#ACD3D0"/>
<rect x="92.0536" y="70.1641" width="4" height="12" transform="rotate(90.7834 92.0536 70.1641)" fill="#ACD3D0"/>
<rect x="12.0536" y="70.1641" width="4" height="12" transform="rotate(90.7834 12.0536 70.1641)" fill="#ACD3D0"/>
<rect x="12.0536" y="4.16406" width="4" height="12" transform="rotate(90.7834 12.0536 4.16406)" fill="#ACD3D0"/>
<rect x="80" y="66" width="4" height="12" fill="#ACD3D0"/>
<rect x="8" width="4" height="12" fill="#ACD3D0"/>
<rect x="8" y="66" width="4" height="12" fill="#ACD3D0"/>
</svg>
