<svg width="426" height="145" viewBox="0 0 426 145" fill="none" xmlns="http://www.w3.org/2000/svg">
<path d="M170.311 42.1078C162.57 25.8864 148.914 13.2361 132.14 6.74838C115.367 0.260672 96.7451 0.426606 80.0899 7.21219C63.4347 13.9978 50.0067 26.8894 42.5567 43.2462C35.1066 59.6031 34.1984 78.187 40.018 95.1913C45.8376 112.195 57.9446 126.333 73.8589 134.707C89.7732 143.082 108.29 145.06 125.617 140.236C142.943 135.412 157.768 124.151 167.054 108.76C176.339 93.3691 179.384 75.0133 175.563 57.4526" stroke="#222323" stroke-width="3" stroke-linecap="round" stroke-linejoin="round"/>
<path d="M156.563 122.225C148.872 106.624 136.519 100.823 136.519 100.823H76.4165C76.4165 100.823 64.0692 106.653 56.3784 122.225C56.3784 122.225 98.3919 166.009 152.543 126.032L156.563 122.225Z" fill="white" stroke="#222323" stroke-width="3" stroke-linecap="round" stroke-linejoin="round"/>
<path d="M76.4282 100.823C76.4282 100.823 64.0809 106.653 56.3901 122.225" stroke="#222323" stroke-width="3" stroke-linecap="round" stroke-linejoin="round"/>
<path d="M136.531 100.823C136.531 100.823 148.884 106.653 156.575 122.225" stroke="#222323" stroke-width="3" stroke-linecap="round" stroke-linejoin="round"/>
<path d="M91.6873 107.941L107.092 130.27L122.97 107.93L91.6873 107.941Z" stroke="#222323" stroke-width="3" stroke-linecap="round" stroke-linejoin="round"/>
<path d="M122.97 107.93L98.3978 142.589" stroke="#222323" stroke-width="3" stroke-linecap="round" stroke-linejoin="round"/>
<path d="M66.8059 107.038L28.2527 44.9937C27.8773 44.4236 27.6201 43.784 27.4963 43.1129C27.3725 42.4417 27.3846 41.7526 27.5319 41.0862C27.6791 40.4198 27.9586 39.7897 28.3537 39.233C28.7488 38.6763 29.2516 38.2044 29.8323 37.8451C30.413 37.4858 31.0599 37.2465 31.7348 37.1412C32.4097 37.0359 33.0988 37.0669 33.7615 37.2322C34.4242 37.3975 35.047 37.6938 35.5932 38.1037C36.1393 38.5135 36.5977 39.0286 36.9413 39.6184L70.1379 93.0628L75.5004 101.254L66.8059 107.038Z" fill="white" stroke="#222323" stroke-width="3" stroke-miterlimit="10"/>
<path d="M59.1909 69.8824L45.5015 78.9657" stroke="#222323" stroke-width="3" stroke-linecap="round" stroke-linejoin="round"/>
<path d="M35.9318 39.1345L31.8705 50.4507" stroke="#222323" stroke-width="3" stroke-miterlimit="10"/>
<path d="M41.1018 46.8827L37.0405 58.1989" stroke="#222323" stroke-width="3" stroke-miterlimit="10"/>
<path d="M46.3943 55.1264L42.333 66.4426" stroke="#222323" stroke-width="3" stroke-miterlimit="10"/>
<path d="M51.6927 63.3702L47.6256 74.6864" stroke="#222323" stroke-width="3" stroke-miterlimit="10"/>
<path d="M115.075 26.0518H97.0732C79.2871 26.0518 64.8687 40.4576 64.8687 58.2281V77.7006C64.8687 95.471 79.2871 109.877 97.0732 109.877H115.075C132.861 109.877 147.279 95.471 147.279 77.7006V58.2281C147.279 40.4576 132.861 26.0518 115.075 26.0518Z" fill="white" stroke="#222323" stroke-width="3" stroke-linecap="round" stroke-linejoin="round"/>
<path d="M127.568 55.313H84.5858C79.1814 55.313 74.8002 59.6903 74.8002 65.09V68.3549C74.8002 73.7546 79.1814 78.1319 84.5858 78.1319H127.568C132.973 78.1319 137.354 73.7546 137.354 68.3549V65.09C137.354 59.6903 132.973 55.313 127.568 55.313Z" stroke="#222323" stroke-width="3" stroke-linecap="round" stroke-linejoin="round"/>
<path d="M114.205 69.4218C114.408 67.6415 115.259 65.998 116.597 64.8047C117.935 63.6114 119.665 62.9519 121.459 62.9519C123.252 62.9519 124.982 63.6114 126.32 64.8047C127.658 65.998 128.509 67.6415 128.712 69.4218" stroke="#222323" stroke-width="3" stroke-linecap="round" stroke-linejoin="round"/>
<path d="M97.9427 69.4218C97.7402 67.6415 96.8889 65.998 95.5511 64.8047C94.2134 63.6114 92.4828 62.9519 90.6895 62.9519C88.8962 62.9519 87.1656 63.6114 85.8278 64.8047C84.4901 65.998 83.6388 67.6415 83.4363 69.4218" stroke="#222323" stroke-width="3" stroke-linecap="round" stroke-linejoin="round"/>
<path d="M159.417 45.4835C165.217 41.5074 173.1 40.1781 179.443 43.2273C179.938 43.4135 180.361 43.7525 180.651 44.1951C180.826 44.5984 180.893 45.0407 180.844 45.4777C180.569 53.016 175.592 59.9246 169.051 63.6676C162.894 67.1656 154.165 68.8797 147.209 67.1656C147.256 58.6362 152.374 50.3108 159.417 45.4835Z" fill="white" stroke="#222323" stroke-width="3" stroke-linecap="round" stroke-linejoin="round"/>
<path d="M164.377 74.5931C167.878 78.4059 169.675 84.0145 168.111 88.9526C168.026 89.3329 167.822 89.6762 167.528 89.932C167.252 90.1038 166.936 90.2003 166.612 90.2119C161.08 90.7949 155.525 87.8798 152.105 83.5131C148.896 79.3912 146.748 73.2055 147.25 67.9643C153.511 67.1072 160.123 69.964 164.377 74.5931Z" fill="white" stroke="#222323" stroke-width="3" stroke-linecap="round" stroke-linejoin="round"/>
<path d="M74.6835 102.881L91.1213 124.685" stroke="#222323" stroke-width="3" stroke-linecap="round" stroke-linejoin="round"/>
<path d="M137.739 102.881L121.301 124.685" stroke="#222323" stroke-width="3" stroke-linecap="round" stroke-linejoin="round"/>
<path d="M56.3901 122.225H2" stroke="#222323" stroke-width="3" stroke-linecap="round" stroke-linejoin="round"/>
<path d="M156.616 122.225H211" stroke="#222323" stroke-width="3" stroke-linecap="round" stroke-linejoin="round"/>
<path d="M213.236 49.384H224.708V54.184H219.236V89.512H224.708V94.312H213.236V49.384ZM248.642 50.92C252.674 50.92 255.81 52.152 258.05 54.616C260.322 57.08 261.458 60.6 261.458 65.176V85H255.218V65.416C255.218 62.44 254.498 60.2 253.058 58.696C251.65 57.16 249.682 56.392 247.154 56.392C244.402 56.392 242.21 57.208 240.578 58.84C238.978 60.44 238.178 62.84 238.178 66.04V85H231.938V51.4H237.986V55.624C240.322 52.488 243.874 50.92 248.642 50.92ZM281.948 56.632V79.768H288.14V85H269.564V79.768H275.756V56.632H269.564V51.4H288.14V56.632H281.948ZM313.232 50.92C317.264 50.92 320.4 52.152 322.64 54.616C324.912 57.08 326.048 60.6 326.048 65.176V85H319.808V65.416C319.808 62.44 319.088 60.2 317.648 58.696C316.24 57.16 314.272 56.392 311.744 56.392C308.992 56.392 306.8 57.208 305.168 58.84C303.568 60.44 302.768 62.84 302.768 66.04V85H296.528V51.4H302.576V55.624C304.912 52.488 308.464 50.92 313.232 50.92ZM341.786 90.28C339.674 90.28 337.722 89.864 335.93 89.032C334.17 88.2 332.714 87 331.562 85.432L335.018 81.16C336.842 83.72 339.034 85 341.594 85C345.146 85 346.922 82.936 346.922 78.808V56.632H334.922V51.4H353.114V78.472C353.114 82.408 352.154 85.352 350.234 87.304C348.314 89.288 345.498 90.28 341.786 90.28ZM378.429 50.92C381.437 50.92 384.061 51.512 386.301 52.696C388.541 53.88 390.269 55.64 391.485 57.976C392.733 60.28 393.357 63.08 393.357 66.376V85H387.117V76.36H369.645V85H363.501V66.376C363.501 63.08 364.109 60.28 365.325 57.976C366.573 55.64 368.317 53.88 370.557 52.696C372.797 51.512 375.421 50.92 378.429 50.92ZM387.117 71.128V65.8C387.117 62.696 386.349 60.36 384.813 58.792C383.277 57.192 381.133 56.392 378.381 56.392C375.629 56.392 373.485 57.192 371.949 58.792C370.413 60.36 369.645 62.696 369.645 65.8V71.128H387.117ZM400.31 94.312V89.512H405.734V54.184H400.31V49.384H411.734V94.312H400.31Z" fill="black"/>
</svg>
