<svg width="370" height="339" viewBox="0 0 370 339" fill="none" xmlns="http://www.w3.org/2000/svg">
<path d="M296.132 72.8521C282.65 44.6007 258.867 22.5689 229.654 11.2698C200.441 -0.0292282 168.009 0.259765 139.002 12.0776C109.995 23.8954 86.6089 46.3476 73.6338 74.8348C60.6587 103.322 59.0769 135.688 69.2124 165.303C79.3479 194.917 100.434 219.539 128.15 234.124C155.866 248.709 188.116 252.154 218.292 243.752C248.468 235.351 274.286 215.739 290.459 188.934C306.631 162.129 311.933 130.161 305.278 99.5767" stroke="#222323" stroke-width="5" stroke-linecap="round" stroke-linejoin="round"/>
<path d="M272.189 212.385C258.794 185.213 237.28 175.11 237.28 175.11H132.604C132.604 175.11 111.1 185.264 97.7058 212.385C97.7058 212.385 170.877 288.639 265.186 219.015L272.189 212.385Z" fill="white" stroke="#222323" stroke-width="5" stroke-linecap="round" stroke-linejoin="round"/>
<path d="M132.625 175.11C132.625 175.11 111.121 185.264 97.7262 212.385" stroke="#222323" stroke-width="5" stroke-linecap="round" stroke-linejoin="round"/>
<path d="M237.3 175.11C237.3 175.11 258.815 185.264 272.209 212.385" stroke="#222323" stroke-width="5" stroke-linecap="round" stroke-linejoin="round"/>
<path d="M159.2 187.508L186.03 226.397L213.682 187.488L159.2 187.508Z" stroke="#222323" stroke-width="5" stroke-linecap="round" stroke-linejoin="round"/>
<path d="M213.682 187.488L170.887 247.852" stroke="#222323" stroke-width="5" stroke-linecap="round" stroke-linejoin="round"/>
<path d="M115.867 185.934L48.7218 77.8782C48.0681 76.8852 47.6202 75.7714 47.4046 74.6025C47.189 73.4336 47.21 72.2335 47.4665 71.0729C47.723 69.9123 48.2096 68.8148 48.8978 67.8452C49.5859 66.8757 50.4615 66.0538 51.4729 65.4281C52.4843 64.8024 53.611 64.3856 54.7863 64.2022C55.9617 64.0189 57.1619 64.0727 58.3161 64.3606C59.4702 64.6485 60.555 65.1646 61.5061 65.8784C62.4573 66.5922 63.2557 67.4892 63.854 68.5165L121.669 161.596L131.009 175.862L115.867 185.934Z" fill="white" stroke="#222323" stroke-width="5" stroke-miterlimit="10"/>
<path d="M102.604 121.224L78.7626 137.044" stroke="#222323" stroke-width="5" stroke-linecap="round" stroke-linejoin="round"/>
<path d="M62.0959 67.6738L55.0227 87.3822" stroke="#222323" stroke-width="5" stroke-miterlimit="10"/>
<path d="M71.1 81.1681L64.0268 100.876" stroke="#222323" stroke-width="5" stroke-miterlimit="10"/>
<path d="M80.3175 95.5254L73.2443 115.234" stroke="#222323" stroke-width="5" stroke-miterlimit="10"/>
<path d="M89.5452 109.883L82.4619 129.591" stroke="#222323" stroke-width="5" stroke-miterlimit="10"/>
<path d="M199.932 44.8888H168.58C137.604 44.8888 112.493 69.978 112.493 100.927V134.841C112.493 165.79 137.604 190.879 168.58 190.879H199.932C230.908 190.879 256.02 165.79 256.02 134.841V100.927C256.02 69.978 230.908 44.8888 199.932 44.8888Z" fill="white" stroke="#222323" stroke-width="5" stroke-linecap="round" stroke-linejoin="round"/>
<path d="M221.69 95.8503H146.832C137.42 95.8503 129.789 103.474 129.789 112.878V118.564C129.789 127.968 137.42 135.592 146.832 135.592H221.69C231.103 135.592 238.733 127.968 238.733 118.564V112.878C238.733 103.474 231.103 95.8503 221.69 95.8503Z" stroke="#222323" stroke-width="5" stroke-linecap="round" stroke-linejoin="round"/>
<path d="M198.418 120.422C198.77 117.322 200.253 114.459 202.583 112.381C204.913 110.303 207.927 109.154 211.05 109.154C214.173 109.154 217.187 110.303 219.517 112.381C221.847 114.459 223.33 117.322 223.682 120.422" stroke="#222323" stroke-width="5" stroke-linecap="round" stroke-linejoin="round"/>
<path d="M170.094 120.422C169.742 117.322 168.259 114.459 165.929 112.381C163.6 110.303 160.586 109.154 157.462 109.154C154.339 109.154 151.325 110.303 148.995 112.381C146.665 114.459 145.183 117.322 144.83 120.422" stroke="#222323" stroke-width="5" stroke-linecap="round" stroke-linejoin="round"/>
<path d="M277.158 78.7311C287.26 71.8063 300.99 69.4912 312.036 74.8016C312.899 75.126 313.636 75.7164 314.14 76.4872C314.446 77.1896 314.561 77.9599 314.475 78.721C313.998 91.8498 305.329 103.882 293.937 110.401C283.215 116.493 268.012 119.478 255.898 116.493C255.979 101.638 264.892 87.1384 277.158 78.7311Z" fill="white" stroke="#222323" stroke-width="5" stroke-linecap="round" stroke-linejoin="round"/>
<path d="M285.796 129.429C291.894 136.069 295.024 145.837 292.301 154.437C292.153 155.1 291.797 155.698 291.284 156.143C290.804 156.442 290.254 156.61 289.689 156.631C280.054 157.646 270.38 152.569 264.424 144.964C258.835 137.785 255.095 127.012 255.969 117.884C266.873 116.391 278.388 121.367 285.796 129.429Z" fill="white" stroke="#222323" stroke-width="5" stroke-linecap="round" stroke-linejoin="round"/>
<path d="M129.586 178.695L158.214 216.67" stroke="#222323" stroke-width="5" stroke-linecap="round" stroke-linejoin="round"/>
<path d="M239.404 178.695L210.776 216.67" stroke="#222323" stroke-width="5" stroke-linecap="round" stroke-linejoin="round"/>
<path d="M97.7262 212.385H3" stroke="#222323" stroke-width="5" stroke-linecap="round" stroke-linejoin="round"/>
<path d="M272.28 212.385H366.996" stroke="#222323" stroke-width="5" stroke-linecap="round" stroke-linejoin="round"/>
<path d="M51.6485 276.512H66.9445V282.912H59.6485V330.016H66.9445V336.416H51.6485V276.512ZM98.8555 278.56C104.232 278.56 108.413 280.203 111.4 283.488C114.429 286.773 115.944 291.467 115.944 297.568V324H107.624V297.888C107.624 293.92 106.664 290.933 104.744 288.928C102.866 286.88 100.242 285.856 96.8715 285.856C93.2022 285.856 90.2795 286.944 88.1035 289.12C85.9702 291.253 84.9035 294.453 84.9035 298.72V324H76.5835V279.2H84.6475V284.832C87.7622 280.651 92.4982 278.56 98.8555 278.56ZM143.264 286.176V317.024H151.52V324H126.752V317.024H135.008V286.176H126.752V279.2H151.52V286.176H143.264ZM184.976 278.56C190.352 278.56 194.533 280.203 197.52 283.488C200.549 286.773 202.064 291.467 202.064 297.568V324H193.744V297.888C193.744 293.92 192.784 290.933 190.864 288.928C188.986 286.88 186.362 285.856 182.992 285.856C179.322 285.856 176.4 286.944 174.224 289.12C172.09 291.253 171.024 294.453 171.024 298.72V324H162.704V279.2H170.768V284.832C173.882 280.651 178.618 278.56 184.976 278.56ZM223.048 331.04C220.232 331.04 217.629 330.485 215.24 329.376C212.893 328.267 210.952 326.667 209.416 324.576L214.024 318.88C216.456 322.293 219.378 324 222.792 324C227.528 324 229.896 321.248 229.896 315.744V286.176H213.896V279.2H238.152V315.296C238.152 320.544 236.872 324.469 234.312 327.072C231.752 329.717 227.997 331.04 223.048 331.04ZM271.906 278.56C275.917 278.56 279.415 279.349 282.402 280.928C285.389 282.507 287.693 284.853 289.314 287.968C290.978 291.04 291.81 294.773 291.81 299.168V324H283.49V312.48H260.194V324H252.002V299.168C252.002 294.773 252.813 291.04 254.434 287.968C256.098 284.853 258.423 282.507 261.41 280.928C264.397 279.349 267.895 278.56 271.906 278.56ZM283.49 305.504V298.4C283.49 294.261 282.466 291.147 280.418 289.056C278.37 286.923 275.511 285.856 271.842 285.856C268.173 285.856 265.314 286.923 263.266 289.056C261.218 291.147 260.194 294.261 260.194 298.4V305.504H283.49ZM301.08 336.416V330.016H308.312V282.912H301.08V276.512H316.312V336.416H301.08Z" fill="black"/>
</svg>
