<svg xmlns="http://www.w3.org/2000/svg" viewBox="0 0 364.41 248.68"><defs><style>.cls-1{fill:#7fdbdb;}.cls-1,.cls-2,.cls-3,.cls-4,.cls-5{stroke:#222323;}.cls-1,.cls-2,.cls-3{stroke-linecap:round;stroke-linejoin:round;stroke-width:6.25px;}.cls-2,.cls-4{fill:#fff;}.cls-3,.cls-5{fill:none;}.cls-4,.cls-5{stroke-miterlimit:10;stroke-width:5.21px;}</style></defs><g id="Capa_2" data-name="Capa 2"><g id="OBJECTS"><path class="cls-1" d="M291.56,72.05a120.77,120.77,0,1,0,9,26.32"/><path class="cls-2" d="M268,209.47c-13.18-26.76-34.35-36.71-34.35-36.71h-103s-21.16,10-34.34,36.71c0,0,72,75.1,164.8,6.53Z"/><path class="cls-3" d="M130.67,172.76s-21.16,10-34.34,36.71"/><path class="cls-3" d="M233.67,172.76s21.17,10,34.35,36.71"/><polygon class="cls-1" points="156.82 184.97 183.22 223.27 210.43 184.95 156.82 184.97"/><line class="cls-3" x1="210.43" y1="184.95" x2="168.32" y2="244.4"/><path class="cls-4" d="M114.18,183.42,48.11,77A8.76,8.76,0,1,1,63,67.78l56.89,91.67,9.19,14.05Z"/><line class="cls-3" x1="101.13" y1="119.69" x2="77.67" y2="135.27"/><line class="cls-5" x1="61.27" y1="66.95" x2="54.31" y2="86.36"/><line class="cls-5" x1="70.13" y1="80.24" x2="63.17" y2="99.65"/><line class="cls-5" x1="79.2" y1="94.38" x2="72.24" y2="113.79"/><line class="cls-5" x1="88.28" y1="108.52" x2="81.31" y2="127.93"/><rect class="cls-2" x="110.86" y="44.51" width="141.23" height="143.78" rx="55.19"/><rect class="cls-1" x="127.88" y="94.7" width="107.2" height="39.14" rx="16.77"/><path class="cls-3" d="M195.41,118.9a12.51,12.51,0,0,1,24.86,0"/><path class="cls-3" d="M167.54,118.9a12.51,12.51,0,0,0-24.86,0"/><path class="cls-2" d="M272.89,77.84c9.94-6.82,23.45-9.1,34.32-3.87a4.27,4.27,0,0,1,2.07,1.66,4.31,4.31,0,0,1,.33,2.2c-.47,12.93-9,24.78-20.21,31.2-10.55,6-25.51,8.94-37.43,6C252.05,100.4,260.82,86.12,272.89,77.84Z"/><path class="cls-2" d="M281.39,127.77c6,6.54,9.08,16.16,6.4,24.63a3.13,3.13,0,0,1-1,1.68,3.18,3.18,0,0,1-1.57.48c-9.48,1-19-4-24.86-11.49-5.5-7.07-9.18-17.68-8.32-26.67C262.77,114.93,274.1,119.83,281.39,127.77Z"/><line class="cls-3" x1="127.68" y1="176.29" x2="155.85" y2="213.69"/><line class="cls-3" x1="235.74" y1="176.29" x2="207.57" y2="213.69"/><line class="cls-3" x1="96.33" y1="209.47" x2="3.12" y2="209.47"/><line class="cls-3" x1="268.09" y1="209.47" x2="361.29" y2="209.47"/></g></g></svg>